<svg width="45" height="45" viewBox="0 0 45 45" fill="none" xmlns="http://www.w3.org/2000/svg">
<path d="M38.5769 2.8125C37.3595 2.81198 36.1748 3.20662 35.2008 3.93712C34.2269 4.66761 33.5164 5.69449 33.176 6.8634C32.8357 8.03232 32.884 9.28011 33.3136 10.4192C33.7432 11.5584 34.531 12.5273 35.5584 13.1803L31.8879 26.0271C31.774 26.0198 31.6599 26.016 31.5457 26.0156C30.3357 26.0143 29.1579 26.4053 28.1889 27.1299L21.4078 21.479C21.7288 20.5265 21.7887 19.5053 21.5813 18.5218C21.374 17.5383 20.9068 16.6283 20.2285 15.8865C19.5502 15.1447 18.6855 14.5983 17.7244 14.3039C16.7633 14.0096 15.7409 13.9782 14.7636 14.213C13.7862 14.4478 12.8896 14.9401 12.1671 15.6389C11.4445 16.3376 10.9224 17.2172 10.655 18.1862C10.3877 19.1551 10.3848 20.178 10.6468 21.1484C10.9088 22.1188 11.426 23.0013 12.1446 23.7041L8.16388 31.6659C7.98955 31.6494 7.81455 31.6409 7.63944 31.6406C6.29187 31.6389 4.98835 32.1204 3.96548 32.9977C2.94261 33.875 2.26819 35.09 2.06464 36.4221C1.86109 37.7542 2.1419 39.1151 2.8561 40.2579C3.5703 41.4006 4.67054 42.2494 5.95713 42.6502C7.24372 43.051 8.63136 42.9772 9.86819 42.4422C11.105 41.9072 12.109 40.9465 12.698 39.7345C13.287 38.5224 13.4219 37.1394 13.0782 35.8364C12.7345 34.5334 11.935 33.3968 10.8249 32.6329L14.5866 25.1104C15.5003 25.3625 16.4631 25.379 17.385 25.1584C18.3068 24.9377 19.1578 24.4872 19.8584 23.8487L26.4239 29.32C25.978 30.3025 25.8241 31.3925 25.9806 32.46C26.137 33.5276 26.5972 34.5276 27.3062 35.3408C28.0151 36.1541 28.9431 36.7463 29.9793 37.0468C31.0155 37.3474 32.1163 37.3435 33.1504 37.0358C34.1845 36.7281 35.1083 36.1295 35.8116 35.3114C36.515 34.4932 36.9682 33.49 37.1172 32.4215C37.2663 31.3529 37.1048 30.264 36.6522 29.2846C36.1996 28.3052 35.4748 27.4767 34.5644 26.8978L38.2347 14.0511C38.348 14.0579 38.4619 14.0625 38.5769 14.0625C40.0688 14.0625 41.4995 13.4699 42.5544 12.415C43.6093 11.3601 44.2019 9.92934 44.2019 8.4375C44.2019 6.94566 43.6093 5.51492 42.5544 4.46002C41.4995 3.40513 40.0688 2.8125 38.5769 2.8125ZM7.63944 40.0781C7.08318 40.0781 6.53941 39.9132 6.07689 39.6041C5.61438 39.2951 5.2539 38.8558 5.04102 38.3419C4.82815 37.828 4.77246 37.2625 4.88098 36.7169C4.9895 36.1714 5.25736 35.6702 5.6507 35.2769C6.04403 34.8836 6.54517 34.6157 7.09074 34.5072C7.63632 34.3986 8.20182 34.4543 8.71573 34.6672C9.22965 34.8801 9.6689 35.2406 9.97794 35.7031C10.287 36.1656 10.4519 36.7094 10.4519 37.2656C10.4511 38.0113 10.1545 38.7262 9.62725 39.2534C9.09998 39.7807 8.3851 40.0773 7.63944 40.0781ZM16.0769 22.5C15.5207 22.5 14.9769 22.335 14.5144 22.026C14.0519 21.717 13.6914 21.2777 13.4785 20.7638C13.2657 20.2499 13.21 19.6844 13.3185 19.1388C13.427 18.5932 13.6949 18.0921 14.0882 17.6988C14.4815 17.3054 14.9827 17.0376 15.5282 16.929C16.0738 16.8205 16.6393 16.8762 17.1532 17.0891C17.6671 17.302 18.1064 17.6624 18.4154 18.125C18.7245 18.5875 18.8894 19.1312 18.8894 19.6875C18.8886 20.4332 18.592 21.148 18.0647 21.6753C17.5375 22.2026 16.8226 22.4992 16.0769 22.5ZM31.5457 34.4531C30.9894 34.4531 30.4457 34.2882 29.9831 33.9791C29.5206 33.6701 29.1601 33.2308 28.9473 32.7169C28.7344 32.203 28.6787 31.6375 28.7872 31.0919C28.8957 30.5464 29.1636 30.0452 29.5569 29.6519C29.9503 29.2586 30.4514 28.9907 30.997 28.8822C31.5426 28.7736 32.1081 28.8293 32.622 29.0422C33.1359 29.2551 33.5751 29.6156 33.8842 30.0781C34.1932 30.5406 34.3582 31.0844 34.3582 31.6406C34.3573 32.3863 34.0608 33.1012 33.5335 33.6284C33.0062 34.1557 32.2913 34.4523 31.5457 34.4531ZM38.5769 11.25C38.0207 11.25 37.4769 11.0851 37.0144 10.776C36.5519 10.467 36.1914 10.0277 35.9785 9.5138C35.7657 8.99988 35.71 8.43438 35.8185 7.88881C35.927 7.34324 36.1949 6.8421 36.5882 6.44876C36.9815 6.05543 37.4827 5.78756 38.0282 5.67904C38.5738 5.57052 39.1393 5.62622 39.6532 5.83909C40.1671 6.05196 40.6064 6.41245 40.9154 6.87496C41.2245 7.33747 41.3894 7.88124 41.3894 8.4375C41.3886 9.18317 41.092 9.89805 40.5647 10.4253C40.0375 10.9526 39.3226 11.2492 38.5769 11.25Z" fill="black"/>
</svg>
