<svg width="45" height="45" viewBox="0 0 45 45" fill="#ffffff" xmlns="http://www.w3.org/2000/svg">
<path d="M0 4.21875C0 3.09987 0.444474 2.02681 1.23564 1.23564C2.02681 0.444474 3.09987 0 4.21875 0L40.7812 0C41.9001 0 42.9732 0.444474 43.7644 1.23564C44.5555 2.02681 45 3.09987 45 4.21875V40.7812C45 41.9001 44.5555 42.9732 43.7644 43.7644C42.9732 44.5555 41.9001 45 40.7812 45H4.21875C3.09987 45 2.02681 44.5555 1.23564 43.7644C0.444474 42.9732 0 41.9001 0 40.7812L0 4.21875ZM4.21875 2.8125C3.84579 2.8125 3.4881 2.96066 3.22438 3.22438C2.96066 3.4881 2.8125 3.84579 2.8125 4.21875V14.0625H14.0625V2.8125H4.21875ZM14.0625 16.875H2.8125V28.125H14.0625V16.875ZM16.875 28.125H28.125V16.875H16.875V28.125ZM14.0625 30.9375H2.8125V40.7812C2.8125 41.1542 2.96066 41.5119 3.22438 41.7756C3.4881 42.0393 3.84579 42.1875 4.21875 42.1875H14.0625V30.9375ZM16.875 30.9375V42.1875H28.125V30.9375H16.875ZM30.9375 30.9375V42.1875H40.7812C41.1542 42.1875 41.5119 42.0393 41.7756 41.7756C42.0393 41.5119 42.1875 41.1542 42.1875 40.7812V30.9375H30.9375ZM30.9375 28.125H42.1875V16.875H30.9375V28.125ZM30.9375 14.0625H42.1875V4.21875C42.1875 3.84579 42.0393 3.4881 41.7756 3.22438C41.5119 2.96066 41.1542 2.8125 40.7812 2.8125H30.9375V14.0625ZM28.125 14.0625V2.8125H16.875V14.0625H28.125Z" fill="#ffffff"/>
</svg>
