<svg width="45" height="45" viewBox="0 0 45 45" fill="none" xmlns="http://www.w3.org/2000/svg">
<path d="M39.7755 8.58797L43.5625 4.80094L41.5741 2.8125L37.787 6.59953L36.25 5.0625C35.9961 4.79582 35.6907 4.5835 35.3523 4.43842C35.0138 4.29335 34.6495 4.21854 34.2812 4.21854C33.913 4.21854 33.5487 4.29335 33.2102 4.43842C32.8718 4.5835 32.5664 4.79582 32.3125 5.0625L7 30.375V39.375H16L41.3125 14.0625C41.5792 13.8086 41.7915 13.5032 41.9366 13.1648C42.0817 12.8263 42.1565 12.462 42.1565 12.0938C42.1565 11.7255 42.0817 11.3612 41.9366 11.0227C41.7915 10.6843 41.5792 10.3789 41.3125 10.125L39.7755 8.58797ZM14.875 36.5625H9.8125V31.5L34.2812 7.03125L39.3438 12.0938L14.875 36.5625Z" fill="black"/>
<path d="M19 16.2928L29.6678 5.625L31.6562 7.61344L20.9884 18.2812L19 16.2928Z" fill="black"/>
</svg>
