<svg width="45" height="45" viewBox="0 0 45 45" fill="#ffffff" xmlns="http://www.w3.org/2000/svg">
<path d="M40.5757 23.5687V22.5V21.4172L43.2757 19.0547C43.7734 18.616 44.1 18.0155 44.1978 17.3593C44.2956 16.7031 44.1583 16.0335 43.8101 15.4687L40.4913 9.84374C40.2447 9.41661 39.8901 9.06184 39.4631 8.81502C39.0361 8.56819 38.5517 8.438 38.0585 8.43749C37.7529 8.43515 37.4489 8.48265 37.1585 8.57812L33.7413 9.73124C33.1513 9.33919 32.5359 8.98685 31.8991 8.67655L31.182 5.1328C31.0534 4.48537 30.7011 3.9038 30.187 3.48989C29.6728 3.07597 29.0294 2.85609 28.3695 2.86874H21.7882C21.1282 2.85609 20.4849 3.07597 19.9707 3.48989C19.4565 3.9038 19.1043 4.48537 18.9757 5.1328L18.2585 8.67655C17.6172 8.98677 16.9971 9.33911 16.4023 9.73124L13.0554 8.52187C12.7619 8.4454 12.458 8.41691 12.1554 8.43749C11.6622 8.438 11.1778 8.56819 10.7508 8.81502C10.3238 9.06184 9.96918 9.41661 9.72258 9.84374L6.40383 15.4687C6.07559 16.0326 5.95362 16.6931 6.0588 17.337C6.16399 17.981 6.48978 18.5683 6.98039 18.9984L9.6382 21.4312V23.5828L6.98039 25.9453C6.47592 26.3784 6.14122 26.9763 6.03567 27.6327C5.93012 28.2892 6.06056 28.9618 6.40383 29.5312L9.72258 35.1562C9.96918 35.5834 10.3238 35.9381 10.7508 36.185C11.1778 36.4318 11.6622 36.562 12.1554 36.5625C12.461 36.5648 12.765 36.5173 13.0554 36.4219L16.4726 35.2687C17.0626 35.6608 17.678 36.0131 18.3148 36.3234L19.032 39.8672C19.1605 40.5146 19.5128 41.0962 20.0269 41.5101C20.5411 41.924 21.1845 42.1439 21.8445 42.1312H28.482C29.1419 42.1439 29.7853 41.924 30.2995 41.5101C30.8136 41.0962 31.1659 40.5146 31.2945 39.8672L32.0116 36.3234C32.653 36.0132 33.2731 35.6609 33.8679 35.2687L37.271 36.4219C37.5614 36.5173 37.8654 36.5648 38.171 36.5625C38.6642 36.562 39.1486 36.4318 39.5756 36.185C40.0026 35.9381 40.3572 35.5834 40.6038 35.1562L43.8101 29.5312C44.1383 28.9673 44.2603 28.3069 44.1551 27.6629C44.0499 27.019 43.7241 26.4317 43.2335 26.0016L40.5757 23.5687ZM38.0585 33.75L33.2351 32.1187C32.1059 33.0751 30.8155 33.8228 29.4241 34.3266L28.4257 39.375H21.7882L20.7898 34.3828C19.4094 33.8647 18.1259 33.1184 16.9929 32.175L12.1554 33.75L8.83664 28.125L12.6616 24.75C12.4016 23.2943 12.4016 21.8041 12.6616 20.3484L8.83664 16.875L12.1554 11.25L16.9788 12.8812C18.108 11.9248 19.3984 11.1772 20.7898 10.6734L21.7882 5.62499H28.4257L29.4241 10.6172C30.8045 11.1353 32.088 11.8816 33.221 12.825L38.0585 11.25L41.3773 16.875L37.5523 20.25C37.8123 21.7057 37.8123 23.1959 37.5523 24.6516L41.3773 28.125L38.0585 33.75Z" fill="#ffffff"/>
<path d="M25.4375 30.9375C23.7687 30.9375 22.1374 30.4426 20.7499 29.5155C19.3623 28.5884 18.2809 27.2706 17.6423 25.7289C17.0037 24.1871 16.8366 22.4906 17.1621 20.8539C17.4877 19.2172 18.2913 17.7138 19.4713 16.5338C20.6513 15.3538 22.1547 14.5502 23.7914 14.2246C25.4281 13.8991 27.1246 14.0662 28.6664 14.7048C30.2081 15.3434 31.5259 16.4248 32.453 17.8124C33.3802 19.1999 33.875 20.8312 33.875 22.5C33.8863 23.6112 33.6757 24.7134 33.2557 25.7422C32.8357 26.771 32.2146 27.7056 31.4289 28.4914C30.6431 29.2771 29.7085 29.8982 28.6797 30.3182C27.6509 30.7382 26.5487 30.9488 25.4375 30.9375ZM25.4375 16.875C24.6941 16.8577 23.9549 16.9913 23.2646 17.2679C22.5743 17.5444 21.9473 17.9581 21.4215 18.484C20.8956 19.0098 20.4819 19.6368 20.2054 20.3271C19.9288 21.0174 19.7952 21.7566 19.8125 22.5C19.7952 23.2434 19.9288 23.9826 20.2054 24.6729C20.4819 25.3632 20.8956 25.9902 21.4215 26.516C21.9473 27.0419 22.5743 27.4556 23.2646 27.7321C23.9549 28.0087 24.6941 28.1423 25.4375 28.125C26.1809 28.1423 26.9201 28.0087 27.6104 27.7321C28.3007 27.4556 28.9277 27.0419 29.4535 26.516C29.9794 25.9902 30.3931 25.3632 30.6696 24.6729C30.9462 23.9826 31.0798 23.2434 31.0625 22.5C31.0798 21.7566 30.9462 21.0174 30.6696 20.3271C30.3931 19.6368 29.9794 19.0098 29.4535 18.484C28.9277 17.9581 28.3007 17.5444 27.6104 17.2679C26.9201 16.9913 26.1809 16.8577 25.4375 16.875Z" fill="#ffffff"/>
</svg>
