<svg width="46" height="45" viewBox="0 0 46 45" fill="#ffffff" xmlns="http://www.w3.org/2000/svg">
<path fill-rule="evenodd" clip-rule="evenodd" d="M16.4834 5.625C16.4834 5.25204 16.6248 4.89435 16.8764 4.63063C17.128 4.36691 17.4692 4.21875 17.8251 4.21875C20.1381 4.21875 22.046 5.02594 23.3527 5.81063C23.8196 6.08906 24.2141 6.3675 24.5334 6.615C24.8527 6.3675 25.2472 6.08906 25.7141 5.81063C27.3932 4.78531 29.2985 4.23663 31.2417 4.21875C31.5976 4.21875 31.9388 4.36691 32.1904 4.63063C32.4421 4.89435 32.5834 5.25204 32.5834 5.625C32.5834 5.99796 32.4421 6.35565 32.1904 6.61937C31.9388 6.88309 31.5976 7.03125 31.2417 7.03125C29.5298 7.03125 28.0835 7.63031 27.045 8.25188C26.6357 8.49627 26.2447 8.77268 25.8751 9.07875V21.0938H27.2167C27.5726 21.0938 27.9138 21.2419 28.1654 21.5056C28.4171 21.7694 28.5584 22.127 28.5584 22.5C28.5584 22.873 28.4171 23.2306 28.1654 23.4944C27.9138 23.7581 27.5726 23.9063 27.2167 23.9063H25.8751V35.9213C26.1434 36.1463 26.5405 36.4472 27.045 36.7481C28.0835 37.3697 29.5298 37.9688 31.2417 37.9688C31.5976 37.9688 31.9388 38.1169 32.1904 38.3806C32.4421 38.6444 32.5834 39.002 32.5834 39.375C32.5834 39.748 32.4421 40.1057 32.1904 40.3694C31.9388 40.6331 31.5976 40.7813 31.2417 40.7813C29.2985 40.7634 27.3932 40.2147 25.7141 39.1894C25.3062 38.947 24.912 38.6804 24.5334 38.3906C24.1548 38.6813 23.7606 38.949 23.3527 39.1922C21.6736 40.2175 19.7683 40.7662 17.8251 40.7841C17.4692 40.7841 17.128 40.6359 16.8764 40.3722C16.6248 40.1085 16.4834 39.7508 16.4834 39.3778C16.4834 39.0049 16.6248 38.6472 16.8764 38.3834C17.128 38.1197 17.4692 37.9716 17.8251 37.9716C19.537 37.9716 20.9834 37.3725 22.0218 36.7509C22.5263 36.45 22.9207 36.1491 23.1917 35.9241V23.9063H21.8501C21.4942 23.9063 21.153 23.7581 20.9014 23.4944C20.6498 23.2306 20.5084 22.873 20.5084 22.5C20.5084 22.127 20.6498 21.7694 20.9014 21.5056C21.153 21.2419 21.4942 21.0938 21.8501 21.0938H23.1917V9.07875C22.8222 8.77268 22.4311 8.49627 22.0218 8.25188C20.7479 7.46968 19.3014 7.04898 17.8251 7.03125C17.4692 7.03125 17.128 6.88309 16.8764 6.61937C16.6248 6.35565 16.4834 5.99796 16.4834 5.625Z" fill="#ffffff"/>
<path d="M29.9 14.0625H40.6333C41.345 14.0625 42.0275 14.3588 42.5307 14.8863C43.034 15.4137 43.3167 16.1291 43.3167 16.875V28.125C43.3167 28.8709 43.034 29.5863 42.5307 30.1137C42.0275 30.6412 41.345 30.9375 40.6333 30.9375H29.9V33.75H40.6333C42.0567 33.75 43.4217 33.1574 44.4281 32.1025C45.4346 31.0476 46 29.6168 46 28.125V16.875C46 15.3832 45.4346 13.9524 44.4281 12.8975C43.4217 11.8426 42.0567 11.25 40.6333 11.25H29.9V14.0625ZM19.1667 14.0625V11.25H8.43332C7.00999 11.25 5.64496 11.8426 4.63851 12.8975C3.63207 13.9524 3.06665 15.3832 3.06665 16.875L3.06665 28.125C3.06665 29.6168 3.63207 31.0476 4.63851 32.1025C5.64496 33.1574 7.00999 33.75 8.43332 33.75H19.1667V30.9375H8.43332C7.72165 30.9375 7.03914 30.6412 6.53592 30.1137C6.03269 29.5863 5.74998 28.8709 5.74998 28.125V16.875C5.74998 16.1291 6.03269 15.4137 6.53592 14.8863C7.03914 14.3588 7.72165 14.0625 8.43332 14.0625H19.1667Z" fill="#ffffff"/>
</svg>
